<?xml version="1.0" standalone="no"?><!DOCTYPE svg PUBLIC "-//W3C//DTD SVG 1.1//EN" "http://www.w3.org/Graphics/SVG/1.1/DTD/svg11.dtd"><svg t="1557066961648" class="icon" style="" viewBox="0 0 1024 1024" version="1.1" xmlns="http://www.w3.org/2000/svg" p-id="3593" xmlns:xlink="http://www.w3.org/1999/xlink" width="200" height="200"><defs><style type="text/css"></style></defs><path d="M353.701647 166.851765a154.262588 154.262588 0 1 1-308.495059 0 154.262588 154.262588 0 0 1 308.495059 0z m208.233412-77.101177a77.131294 77.131294 0 1 1-154.262588 0 77.131294 77.131294 0 0 1 154.262588 0z m223.653647 19.245177a77.101176 77.101176 0 1 1-154.232471 0 77.101176 77.101176 0 0 1 154.232471 0z m181.278118 100.291764a77.101176 77.101176 0 1 1-154.262589 0 77.101176 77.101176 0 0 1 154.262589 0zM285.184 407.853176s49.182118-135.951059 237.176471-159.081411c0 0 290.213647-20.239059 340.208941 265.908706 24.395294 139.806118 14.215529 442.669176-210.070588 488.749176-54.121412 11.143529-211.124706-2.710588-190.885648-144.414118 7.137882-50.115765 54.151529-131.674353 0-202.450823-37.586824-49.152-225.581176-63.608471-176.429176-248.71153z" fill="#FF6600" p-id="3594"></path></svg>